<mxfile host="app.diagrams.net" agent="Mozilla/5.0 (Windows NT 10.0; Win64; x64) AppleWebKit/537.36 (KHTML, like Gecko) Chrome/129.0.0.0 Safari/537.36" version="24.8.6">
  <diagram id="C5RBs43oDa-KdzZeNtuy" name="Page-1">
    <mxGraphModel dx="1006" dy="531" grid="1" gridSize="10" guides="1" tooltips="1" connect="1" arrows="1" fold="1" page="1" pageScale="1" pageWidth="827" pageHeight="1169" math="0" shadow="0">
      <root>
        <mxCell id="WIyWlLk6GJQsqaUBKTNV-0" />
        <mxCell id="WIyWlLk6GJQsqaUBKTNV-1" parent="WIyWlLk6GJQsqaUBKTNV-0" />
        <mxCell id="cEnB1XK2174iXDv2jO73-0" value="&lt;font style=&quot;vertical-align: inherit;&quot;&gt;&lt;font style=&quot;vertical-align: inherit;&quot;&gt;Sart&lt;/font&gt;&lt;/font&gt;" style="strokeWidth=2;html=1;shape=mxgraph.flowchart.start_1;whiteSpace=wrap;" vertex="1" parent="WIyWlLk6GJQsqaUBKTNV-1">
          <mxGeometry x="140" y="30" width="100" height="60" as="geometry" />
        </mxCell>
        <mxCell id="cEnB1XK2174iXDv2jO73-4" value="" style="endArrow=classic;html=1;rounded=0;" edge="1" parent="WIyWlLk6GJQsqaUBKTNV-1">
          <mxGeometry width="50" height="50" relative="1" as="geometry">
            <mxPoint x="190" y="90" as="sourcePoint" />
            <mxPoint x="190" y="140" as="targetPoint" />
          </mxGeometry>
        </mxCell>
        <mxCell id="cEnB1XK2174iXDv2jO73-9" value="" style="endArrow=classic;html=1;rounded=0;" edge="1" parent="WIyWlLk6GJQsqaUBKTNV-1">
          <mxGeometry width="50" height="50" relative="1" as="geometry">
            <mxPoint x="189.5" y="190" as="sourcePoint" />
            <mxPoint x="189.5" y="240" as="targetPoint" />
          </mxGeometry>
        </mxCell>
        <mxCell id="cEnB1XK2174iXDv2jO73-10" value="" style="endArrow=classic;html=1;rounded=0;" edge="1" parent="WIyWlLk6GJQsqaUBKTNV-1">
          <mxGeometry width="50" height="50" relative="1" as="geometry">
            <mxPoint x="189.5" y="340" as="sourcePoint" />
            <mxPoint x="189.5" y="390" as="targetPoint" />
          </mxGeometry>
        </mxCell>
        <mxCell id="cEnB1XK2174iXDv2jO73-12" value="&lt;font style=&quot;vertical-align: inherit;&quot;&gt;&lt;font style=&quot;vertical-align: inherit;&quot;&gt;Nhập n từ bàn phím&lt;/font&gt;&lt;/font&gt;" style="rounded=1;whiteSpace=wrap;html=1;absoluteArcSize=1;arcSize=14;strokeWidth=2;" vertex="1" parent="WIyWlLk6GJQsqaUBKTNV-1">
          <mxGeometry x="120" y="140" width="140" height="50" as="geometry" />
        </mxCell>
        <mxCell id="cEnB1XK2174iXDv2jO73-14" value="&lt;font style=&quot;vertical-align: inherit;&quot;&gt;&lt;font style=&quot;vertical-align: inherit;&quot;&gt;n &amp;gt; 0&lt;/font&gt;&lt;/font&gt;" style="strokeWidth=2;html=1;shape=mxgraph.flowchart.decision;whiteSpace=wrap;" vertex="1" parent="WIyWlLk6GJQsqaUBKTNV-1">
          <mxGeometry x="140" y="240" width="100" height="100" as="geometry" />
        </mxCell>
        <mxCell id="cEnB1XK2174iXDv2jO73-15" value="&lt;font style=&quot;vertical-align: inherit;&quot;&gt;&lt;font style=&quot;vertical-align: inherit;&quot;&gt;n / 2 dư 0&lt;/font&gt;&lt;/font&gt;" style="strokeWidth=2;html=1;shape=mxgraph.flowchart.decision;whiteSpace=wrap;" vertex="1" parent="WIyWlLk6GJQsqaUBKTNV-1">
          <mxGeometry x="140" y="390" width="100" height="100" as="geometry" />
        </mxCell>
        <mxCell id="cEnB1XK2174iXDv2jO73-16" value="" style="endArrow=classic;html=1;rounded=0;entryX=0.408;entryY=-0.035;entryDx=0;entryDy=0;entryPerimeter=0;" edge="1" parent="WIyWlLk6GJQsqaUBKTNV-1" target="cEnB1XK2174iXDv2jO73-49">
          <mxGeometry width="50" height="50" relative="1" as="geometry">
            <mxPoint x="240" y="439.5" as="sourcePoint" />
            <mxPoint x="320" y="540" as="targetPoint" />
            <Array as="points">
              <mxPoint x="370" y="440" />
            </Array>
          </mxGeometry>
        </mxCell>
        <mxCell id="cEnB1XK2174iXDv2jO73-17" value="" style="endArrow=classic;html=1;rounded=0;" edge="1" parent="WIyWlLk6GJQsqaUBKTNV-1">
          <mxGeometry width="50" height="50" relative="1" as="geometry">
            <mxPoint x="189.5" y="490" as="sourcePoint" />
            <mxPoint x="190" y="540" as="targetPoint" />
          </mxGeometry>
        </mxCell>
        <mxCell id="cEnB1XK2174iXDv2jO73-18" value="&lt;font style=&quot;vertical-align: inherit;&quot;&gt;&lt;font style=&quot;vertical-align: inherit;&quot;&gt;n là số chẵn&lt;/font&gt;&lt;/font&gt;&lt;span style=&quot;color: rgba(0, 0, 0, 0); font-family: monospace; font-size: 0px; text-align: start; text-wrap: nowrap;&quot;&gt;&lt;font style=&quot;vertical-align: inherit;&quot;&gt;&lt;font style=&quot;vertical-align: inherit;&quot;&gt;%3CmxGraphModel%3E%3Croot%3E%3CmxCell%20id%3D%220%22%2F%3E%3CmxCell%20id%3D%221%22%20parent%3D%220%22%2F%3E%3CmxCell%2 0id%3D%222%22%20value%3D%22false%22%20style%3D%22rounded%3D1%3BwhiteSpace%3Dwrap%3Bhtml%3D1%3BabsoluteArcSize%3D1%3Bar cKích thước%3D14%3BĐộ rộng%3D2%3B%22%20Đỉnh%3D%221%22%20Cha%3D%221%22%3E%3CmxHình học%20x%3D%22280%22%20y%3D%22430%22%20Chiều rộng% 3D%2250%22%20chiều cao%22220%22%20như%22hình%22%22F%3E%3C%2FmxÔ%3E%3C%2Fgốc%3E%3C%2FmxMô hình đồ thị%3E&lt;/font&gt;&lt;/font&gt;&lt;/span&gt;" style="rounded=1;whiteSpace=wrap;html=1;absoluteArcSize=1;arcSize=14;strokeWidth=2;" vertex="1" parent="WIyWlLk6GJQsqaUBKTNV-1">
          <mxGeometry x="140" y="540" width="100" height="40" as="geometry" />
        </mxCell>
        <mxCell id="cEnB1XK2174iXDv2jO73-43" value="False" style="shape=table;startSize=30;container=1;collapsible=0;childLayout=tableLayout;" vertex="1" parent="WIyWlLk6GJQsqaUBKTNV-1">
          <mxGeometry x="250" y="410" width="60" height="20" as="geometry" />
        </mxCell>
        <mxCell id="cEnB1XK2174iXDv2jO73-44" value="" style="shape=tableRow;horizontal=0;startSize=0;swimlaneHead=0;swimlaneBody=0;strokeColor=inherit;top=0;left=0;bottom=0;right=0;collapsible=0;dropTarget=0;fillColor=none;points=[[0,0.5],[1,0.5]];portConstraint=eastwest;" vertex="1" visible="0" parent="cEnB1XK2174iXDv2jO73-43">
          <mxGeometry y="30" width="60" height="40" as="geometry" />
        </mxCell>
        <mxCell id="cEnB1XK2174iXDv2jO73-45" value="" style="shape=partialRectangle;html=1;whiteSpace=wrap;connectable=0;strokeColor=inherit;overflow=hidden;fillColor=none;top=0;left=0;bottom=0;right=0;pointerEvents=1;" vertex="1" parent="cEnB1XK2174iXDv2jO73-44">
          <mxGeometry width="60" height="40" as="geometry">
            <mxRectangle width="60" height="40" as="alternateBounds" />
          </mxGeometry>
        </mxCell>
        <mxCell id="cEnB1XK2174iXDv2jO73-46" value="True" style="shape=table;startSize=30;container=1;collapsible=0;childLayout=tableLayout;" vertex="1" parent="WIyWlLk6GJQsqaUBKTNV-1">
          <mxGeometry x="200" y="500" width="60" height="20" as="geometry" />
        </mxCell>
        <mxCell id="cEnB1XK2174iXDv2jO73-47" value="" style="shape=tableRow;horizontal=0;startSize=0;swimlaneHead=0;swimlaneBody=0;strokeColor=inherit;top=0;left=0;bottom=0;right=0;collapsible=0;dropTarget=0;fillColor=none;points=[[0,0.5],[1,0.5]];portConstraint=eastwest;" vertex="1" visible="0" parent="cEnB1XK2174iXDv2jO73-46">
          <mxGeometry y="30" width="60" height="40" as="geometry" />
        </mxCell>
        <mxCell id="cEnB1XK2174iXDv2jO73-48" value="" style="shape=partialRectangle;html=1;whiteSpace=wrap;connectable=0;strokeColor=inherit;overflow=hidden;fillColor=none;top=0;left=0;bottom=0;right=0;pointerEvents=1;" vertex="1" parent="cEnB1XK2174iXDv2jO73-47">
          <mxGeometry width="60" height="40" as="geometry">
            <mxRectangle width="60" height="40" as="alternateBounds" />
          </mxGeometry>
        </mxCell>
        <mxCell id="cEnB1XK2174iXDv2jO73-49" value="&lt;font style=&quot;vertical-align: inherit;&quot;&gt;&lt;font style=&quot;vertical-align: inherit;&quot;&gt;n là số lẻ&lt;/font&gt;&lt;/font&gt;" style="rounded=1;whiteSpace=wrap;html=1;absoluteArcSize=1;arcSize=14;strokeWidth=2;" vertex="1" parent="WIyWlLk6GJQsqaUBKTNV-1">
          <mxGeometry x="330" y="540" width="100" height="40" as="geometry" />
        </mxCell>
        <mxCell id="cEnB1XK2174iXDv2jO73-50" value="" style="endArrow=classic;html=1;rounded=0;entryX=1;entryY=0.5;entryDx=0;entryDy=0;entryPerimeter=0;" edge="1" parent="WIyWlLk6GJQsqaUBKTNV-1" target="cEnB1XK2174iXDv2jO73-51">
          <mxGeometry width="50" height="50" relative="1" as="geometry">
            <mxPoint x="370" y="580" as="sourcePoint" />
            <mxPoint x="260" y="650" as="targetPoint" />
            <Array as="points">
              <mxPoint x="370" y="680" />
            </Array>
          </mxGeometry>
        </mxCell>
        <mxCell id="cEnB1XK2174iXDv2jO73-51" value="&lt;font style=&quot;vertical-align: inherit;&quot;&gt;&lt;font style=&quot;vertical-align: inherit;&quot;&gt;END&lt;/font&gt;&lt;/font&gt;" style="strokeWidth=2;html=1;shape=mxgraph.flowchart.start_1;whiteSpace=wrap;" vertex="1" parent="WIyWlLk6GJQsqaUBKTNV-1">
          <mxGeometry x="140" y="650" width="100" height="60" as="geometry" />
        </mxCell>
        <mxCell id="cEnB1XK2174iXDv2jO73-52" value="" style="endArrow=classic;html=1;rounded=0;" edge="1" parent="WIyWlLk6GJQsqaUBKTNV-1">
          <mxGeometry width="50" height="50" relative="1" as="geometry">
            <mxPoint x="189.5" y="580" as="sourcePoint" />
            <mxPoint x="189.5" y="650" as="targetPoint" />
          </mxGeometry>
        </mxCell>
      </root>
    </mxGraphModel>
  </diagram>
</mxfile>
